<mxfile host="Electron" agent="Mozilla/5.0 (Macintosh; Intel Mac OS X 10_15_7) AppleWebKit/537.36 (KHTML, like Gecko) draw.io/26.1.1 Chrome/132.0.6834.210 Electron/34.3.3 Safari/537.36" version="26.1.1">
  <diagram id="C5RBs43oDa-KdzZeNtuy" name="Page-1">
    <mxGraphModel dx="1026" dy="686" grid="1" gridSize="10" guides="1" tooltips="1" connect="1" arrows="1" fold="1" page="1" pageScale="1" pageWidth="827" pageHeight="1169" math="0" shadow="0">
      <root>
        <mxCell id="WIyWlLk6GJQsqaUBKTNV-0" />
        <mxCell id="WIyWlLk6GJQsqaUBKTNV-1" parent="WIyWlLk6GJQsqaUBKTNV-0" />
        <mxCell id="config-class" value="Configuration" style="swimlane;fontStyle=1;align=center;verticalAlign=top;childLayout=stackLayout;horizontal=1;startSize=26;horizontalStack=0;resizeParent=1;resizeParentMax=0;resizeLast=0;collapsible=1;marginBottom=0;" parent="WIyWlLk6GJQsqaUBKTNV-1" vertex="1">
          <mxGeometry x="410" y="1240" width="320" height="240" as="geometry" />
        </mxCell>
        <mxCell id="config-attrs" value="- _instance: Configuration&#xa;- _config_content: Dict[str, Any]" style="text;strokeColor=none;fillColor=none;align=left;verticalAlign=top;spacingLeft=4;spacingRight=4;overflow=hidden;rotatable=0;points=[[0,0.5],[1,0.5]];portConstraint=eastwest;" parent="config-class" vertex="1">
          <mxGeometry y="26" width="320" height="44" as="geometry" />
        </mxCell>
        <mxCell id="config-line" value="" style="line;strokeWidth=1;fillColor=none;align=left;verticalAlign=middle;spacingTop=-1;spacingLeft=3;spacingRight=3;rotatable=0;labelPosition=right;points=[];portConstraint=eastwest;strokeColor=inherit;" parent="config-class" vertex="1">
          <mxGeometry y="70" width="320" height="8" as="geometry" />
        </mxCell>
        <mxCell id="config-methods" value="+ __new__(cls, *args, **kwargs): Configuration&#xa;+ __init__(config_file_path: str): None&#xa;+ __str__(): str&#xa;+ safe_load_config(file_path: str): None&#xa;+ validate_config(): bool&#xa;+ items(): dict&#xa;+ str_value(key_path, default_value=None): str&#xa;+ int_value(key_path, expected_min=None, expected_max=None, default_value=None): int&#xa;+ float_value(key_path, expected_min=None, expected_max=None, default_value=None): float&#xa;+ bool_value(key_path, default_value=None): bool&#xa;+ list_value(key_path, default_value=None): list" style="text;strokeColor=none;fillColor=none;align=left;verticalAlign=top;spacingLeft=4;spacingRight=4;overflow=hidden;rotatable=0;points=[[0,0.5],[1,0.5]];portConstraint=eastwest;" parent="config-class" vertex="1">
          <mxGeometry y="78" width="320" height="162" as="geometry" />
        </mxCell>
        <mxCell id="param-prop-class" value="ParameterizedProperty" style="swimlane;fontStyle=1;align=center;verticalAlign=top;childLayout=stackLayout;horizontal=1;startSize=26;horizontalStack=0;resizeParent=1;resizeParentMax=0;resizeLast=0;collapsible=1;marginBottom=0;" parent="WIyWlLk6GJQsqaUBKTNV-1" vertex="1">
          <mxGeometry x="450" y="1090" width="240" height="80" as="geometry" />
        </mxCell>
        <mxCell id="param-prop-attrs" value="" style="text;strokeColor=none;fillColor=none;align=left;verticalAlign=top;spacingLeft=4;spacingRight=4;overflow=hidden;rotatable=0;points=[[0,0.5],[1,0.5]];portConstraint=eastwest;" parent="param-prop-class" vertex="1">
          <mxGeometry y="26" width="240" height="14" as="geometry" />
        </mxCell>
        <mxCell id="param-prop-line" value="" style="line;strokeWidth=1;fillColor=none;align=left;verticalAlign=middle;spacingTop=-1;spacingLeft=3;spacingRight=3;rotatable=0;labelPosition=right;points=[];portConstraint=eastwest;strokeColor=inherit;" parent="param-prop-class" vertex="1">
          <mxGeometry y="40" width="240" height="8" as="geometry" />
        </mxCell>
        <mxCell id="param-prop-methods" value="+ __call__(func): property" style="text;strokeColor=none;fillColor=none;align=left;verticalAlign=top;spacingLeft=4;spacingRight=4;overflow=hidden;rotatable=0;points=[[0,0.5],[1,0.5]];portConstraint=eastwest;" parent="param-prop-class" vertex="1">
          <mxGeometry y="48" width="240" height="32" as="geometry" />
        </mxCell>
        <mxCell id="logger-success-class" value="CustomLoggerSuccess" style="swimlane;fontStyle=1;align=center;verticalAlign=top;childLayout=stackLayout;horizontal=1;startSize=26;horizontalStack=0;resizeParent=1;resizeParentMax=0;resizeLast=0;collapsible=1;marginBottom=0;" parent="WIyWlLk6GJQsqaUBKTNV-1" vertex="1">
          <mxGeometry x="70" y="310" width="250" height="80" as="geometry" />
        </mxCell>
        <mxCell id="logger-success-attrs" value="" style="text;strokeColor=none;fillColor=none;align=left;verticalAlign=top;spacingLeft=4;spacingRight=4;overflow=hidden;rotatable=0;points=[[0,0.5],[1,0.5]];portConstraint=eastwest;" parent="logger-success-class" vertex="1">
          <mxGeometry y="26" width="250" height="14" as="geometry" />
        </mxCell>
        <mxCell id="logger-success-line" value="" style="line;strokeWidth=1;fillColor=none;align=left;verticalAlign=middle;spacingTop=-1;spacingLeft=3;spacingRight=3;rotatable=0;labelPosition=right;points=[];portConstraint=eastwest;strokeColor=inherit;" parent="logger-success-class" vertex="1">
          <mxGeometry y="40" width="250" height="8" as="geometry" />
        </mxCell>
        <mxCell id="logger-success-methods" value="+ success(message, *args, **kwargs): None" style="text;strokeColor=none;fillColor=none;align=left;verticalAlign=top;spacingLeft=4;spacingRight=4;overflow=hidden;rotatable=0;points=[[0,0.5],[1,0.5]];portConstraint=eastwest;" parent="logger-success-class" vertex="1">
          <mxGeometry y="48" width="250" height="32" as="geometry" />
        </mxCell>
        <mxCell id="logger-trace-class" value="CustomLoggerTrace" style="swimlane;fontStyle=1;align=center;verticalAlign=top;childLayout=stackLayout;horizontal=1;startSize=26;horizontalStack=0;resizeParent=1;resizeParentMax=0;resizeLast=0;collapsible=1;marginBottom=0;" parent="WIyWlLk6GJQsqaUBKTNV-1" vertex="1">
          <mxGeometry x="360" y="310" width="230" height="80" as="geometry" />
        </mxCell>
        <mxCell id="logger-trace-attrs" value="" style="text;strokeColor=none;fillColor=none;align=left;verticalAlign=top;spacingLeft=4;spacingRight=4;overflow=hidden;rotatable=0;points=[[0,0.5],[1,0.5]];portConstraint=eastwest;" parent="logger-trace-class" vertex="1">
          <mxGeometry y="26" width="230" height="14" as="geometry" />
        </mxCell>
        <mxCell id="logger-trace-line" value="" style="line;strokeWidth=1;fillColor=none;align=left;verticalAlign=middle;spacingTop=-1;spacingLeft=3;spacingRight=3;rotatable=0;labelPosition=right;points=[];portConstraint=eastwest;strokeColor=inherit;" parent="logger-trace-class" vertex="1">
          <mxGeometry y="40" width="230" height="8" as="geometry" />
        </mxCell>
        <mxCell id="logger-trace-methods" value="+ trace(message, *args, **kwargs): None" style="text;strokeColor=none;fillColor=none;align=left;verticalAlign=top;spacingLeft=4;spacingRight=4;overflow=hidden;rotatable=0;points=[[0,0.5],[1,0.5]];portConstraint=eastwest;" parent="logger-trace-class" vertex="1">
          <mxGeometry y="48" width="230" height="32" as="geometry" />
        </mxCell>
        <mxCell id="missing-env-class" value="MissingEnvVarException" style="swimlane;fontStyle=1;align=center;verticalAlign=top;childLayout=stackLayout;horizontal=1;startSize=26;horizontalStack=0;resizeParent=1;resizeParentMax=0;resizeLast=0;collapsible=1;marginBottom=0;" parent="WIyWlLk6GJQsqaUBKTNV-1" vertex="1">
          <mxGeometry x="640" y="530" width="280" height="100" as="geometry" />
        </mxCell>
        <mxCell id="missing-env-attrs" value="- _env_var_name: str" style="text;strokeColor=none;fillColor=none;align=left;verticalAlign=top;spacingLeft=4;spacingRight=4;overflow=hidden;rotatable=0;points=[[0,0.5],[1,0.5]];portConstraint=eastwest;" parent="missing-env-class" vertex="1">
          <mxGeometry y="26" width="280" height="24" as="geometry" />
        </mxCell>
        <mxCell id="missing-env-line" value="" style="line;strokeWidth=1;fillColor=none;align=left;verticalAlign=middle;spacingTop=-1;spacingLeft=3;spacingRight=3;rotatable=0;labelPosition=right;points=[];portConstraint=eastwest;strokeColor=inherit;" parent="missing-env-class" vertex="1">
          <mxGeometry y="50" width="280" height="8" as="geometry" />
        </mxCell>
        <mxCell id="missing-env-methods" value="+ __init__(env_var_name): None&#xa;+ __str__(): str" style="text;strokeColor=none;fillColor=none;align=left;verticalAlign=top;spacingLeft=4;spacingRight=4;overflow=hidden;rotatable=0;points=[[0,0.5],[1,0.5]];portConstraint=eastwest;" parent="missing-env-class" vertex="1">
          <mxGeometry y="58" width="280" height="42" as="geometry" />
        </mxCell>
        <mxCell id="ctx-mgr-class" value="CtxMgrUtils" style="swimlane;fontStyle=1;align=center;verticalAlign=top;childLayout=stackLayout;horizontal=1;startSize=26;horizontalStack=0;resizeParent=1;resizeParentMax=0;resizeLast=0;collapsible=1;marginBottom=0;" parent="WIyWlLk6GJQsqaUBKTNV-1" vertex="1">
          <mxGeometry x="670" y="710" width="280" height="100" as="geometry" />
        </mxCell>
        <mxCell id="ctx-mgr-attrs" value="- _instance: CtxMgrUtils" style="text;strokeColor=none;fillColor=none;align=left;verticalAlign=top;spacingLeft=4;spacingRight=4;overflow=hidden;rotatable=0;points=[[0,0.5],[1,0.5]];portConstraint=eastwest;" parent="ctx-mgr-class" vertex="1">
          <mxGeometry y="26" width="280" height="24" as="geometry" />
        </mxCell>
        <mxCell id="ctx-mgr-line" value="" style="line;strokeWidth=1;fillColor=none;align=left;verticalAlign=middle;spacingTop=-1;spacingLeft=3;spacingRight=3;rotatable=0;labelPosition=right;points=[];portConstraint=eastwest;strokeColor=inherit;" parent="ctx-mgr-class" vertex="1">
          <mxGeometry y="50" width="280" height="8" as="geometry" />
        </mxCell>
        <mxCell id="ctx-mgr-methods" value="+ __new__(cls, *args, **kwargs): CtxMgrUtils&#xa;+ elapsed_timer(): contextmanager" style="text;strokeColor=none;fillColor=none;align=left;verticalAlign=top;spacingLeft=4;spacingRight=4;overflow=hidden;rotatable=0;points=[[0,0.5],[1,0.5]];portConstraint=eastwest;" parent="ctx-mgr-class" vertex="1">
          <mxGeometry y="58" width="280" height="42" as="geometry" />
        </mxCell>
        <mxCell id="logging-utils-class" value="LoggingUtils" style="swimlane;fontStyle=1;align=center;verticalAlign=top;childLayout=stackLayout;horizontal=1;startSize=26;horizontalStack=0;resizeParent=1;resizeParentMax=0;resizeLast=0;collapsible=1;marginBottom=0;" parent="WIyWlLk6GJQsqaUBKTNV-1" vertex="1">
          <mxGeometry x="120" y="460" width="400" height="240" as="geometry" />
        </mxCell>
        <mxCell id="logging-utils-attrs" value="- _instance: LoggingUtils" style="text;strokeColor=none;fillColor=none;align=left;verticalAlign=top;spacingLeft=4;spacingRight=4;overflow=hidden;rotatable=0;points=[[0,0.5],[1,0.5]];portConstraint=eastwest;" parent="logging-utils-class" vertex="1">
          <mxGeometry y="26" width="400" height="24" as="geometry" />
        </mxCell>
        <mxCell id="logging-utils-line" value="" style="line;strokeWidth=1;fillColor=none;align=left;verticalAlign=middle;spacingTop=-1;spacingLeft=3;spacingRight=3;rotatable=0;labelPosition=right;points=[];portConstraint=eastwest;strokeColor=inherit;" parent="logging-utils-class" vertex="1">
          <mxGeometry y="50" width="400" height="8" as="geometry" />
        </mxCell>
        <mxCell id="logging-utils-methods" value="+ __new__(cls, *args, **kwargs): LoggingUtils&#xa;+ __init__(): None&#xa;+ debug(name, msg, exc_info=False, enable_pformat=False): None&#xa;+ debug_info(name, msg, exc_info=False, enable_pformat=False): None&#xa;+ error(name, msg, exc_info=False, enable_pformat=False): None&#xa;+ info(name, msg, exc_info=False, enable_pformat=False): None&#xa;+ success(name, msg, exc_info=False, enable_pformat=False): None&#xa;+ trace(name, msg, exc_info=False, enable_pformat=False): None&#xa;+ warning(name, msg, exc_info=False, enable_pformat=False): None&#xa;+ get_stdout_logger(name): logging.Logger&#xa;+ get_stderr_logger(name): logging.Logger&#xa;+ is_stderr_logger_level(name, level): bool" style="text;strokeColor=none;fillColor=none;align=left;verticalAlign=top;spacingLeft=4;spacingRight=4;overflow=hidden;rotatable=0;points=[[0,0.5],[1,0.5]];portConstraint=eastwest;" parent="logging-utils-class" vertex="1">
          <mxGeometry y="58" width="400" height="182" as="geometry" />
        </mxCell>
        <mxCell id="path-utils-class" value="PathUtils" style="swimlane;fontStyle=1;align=center;verticalAlign=top;childLayout=stackLayout;horizontal=1;startSize=26;horizontalStack=0;resizeParent=1;resizeParentMax=0;resizeLast=0;collapsible=1;marginBottom=0;" parent="WIyWlLk6GJQsqaUBKTNV-1" vertex="1">
          <mxGeometry x="80" y="940" width="280" height="180" as="geometry" />
        </mxCell>
        <mxCell id="path-utils-attrs" value="- _instance: PathUtils" style="text;strokeColor=none;fillColor=none;align=left;verticalAlign=top;spacingLeft=4;spacingRight=4;overflow=hidden;rotatable=0;points=[[0,0.5],[1,0.5]];portConstraint=eastwest;" parent="path-utils-class" vertex="1">
          <mxGeometry y="26" width="280" height="24" as="geometry" />
        </mxCell>
        <mxCell id="path-utils-line" value="" style="line;strokeWidth=1;fillColor=none;align=left;verticalAlign=middle;spacingTop=-1;spacingLeft=3;spacingRight=3;rotatable=0;labelPosition=right;points=[];portConstraint=eastwest;strokeColor=inherit;" parent="path-utils-class" vertex="1">
          <mxGeometry y="50" width="280" height="8" as="geometry" />
        </mxCell>
        <mxCell id="path-utils-methods" value="+ __new__(cls, *args, **kwargs): PathUtils&#xa;+ is_dir(check_path): bool&#xa;+ is_file(check_path): bool&#xa;+ path_exists(check_path): bool&#xa;+ directory_exists(check_path): bool&#xa;+ file_exists(check_path): bool&#xa;+ get_ascii_file_contents(source_path): str" style="text;strokeColor=none;fillColor=none;align=left;verticalAlign=top;spacingLeft=4;spacingRight=4;overflow=hidden;rotatable=0;points=[[0,0.5],[1,0.5]];portConstraint=eastwest;" parent="path-utils-class" vertex="1">
          <mxGeometry y="58" width="280" height="122" as="geometry" />
        </mxCell>
        <mxCell id="rdiSGfh49wdftC4usLac-5" style="rounded=0;orthogonalLoop=1;jettySize=auto;html=1;endSize=12;endArrow=open;endFill=0;dashed=1;entryX=0.5;entryY=1;entryDx=0;entryDy=0;entryPerimeter=0;" parent="WIyWlLk6GJQsqaUBKTNV-1" source="generic-utils-class" edge="1" target="rdiSGfh49wdftC4usLac-4">
          <mxGeometry relative="1" as="geometry">
            <mxPoint x="30" y="876" as="targetPoint" />
          </mxGeometry>
        </mxCell>
        <mxCell id="0FEMXD7IfhNHPRZaSLPf-1" value="uses" style="edgeLabel;html=1;align=center;verticalAlign=middle;resizable=0;points=[];" vertex="1" connectable="0" parent="rdiSGfh49wdftC4usLac-5">
          <mxGeometry x="0.0091" y="-2" relative="1" as="geometry">
            <mxPoint y="1" as="offset" />
          </mxGeometry>
        </mxCell>
        <mxCell id="generic-utils-class" value="GenericUtils" style="swimlane;fontStyle=1;align=center;verticalAlign=top;childLayout=stackLayout;horizontal=1;startSize=26;horizontalStack=0;resizeParent=1;resizeParentMax=0;resizeLast=0;collapsible=1;marginBottom=0;" parent="WIyWlLk6GJQsqaUBKTNV-1" vertex="1">
          <mxGeometry x="400" y="942" width="320" height="110" as="geometry" />
        </mxCell>
        <mxCell id="generic-utils-attrs" value="- _instance: GenericUtils" style="text;strokeColor=none;fillColor=none;align=left;verticalAlign=top;spacingLeft=4;spacingRight=4;overflow=hidden;rotatable=0;points=[[0,0.5],[1,0.5]];portConstraint=eastwest;" parent="generic-utils-class" vertex="1">
          <mxGeometry y="26" width="320" height="24" as="geometry" />
        </mxCell>
        <mxCell id="generic-utils-line" value="" style="line;strokeWidth=1;fillColor=none;align=left;verticalAlign=middle;spacingTop=-1;spacingLeft=3;spacingRight=3;rotatable=0;labelPosition=right;points=[];portConstraint=eastwest;strokeColor=inherit;" parent="generic-utils-class" vertex="1">
          <mxGeometry y="50" width="320" height="8" as="geometry" />
        </mxCell>
        <mxCell id="generic-utils-methods" value="+ __new__(cls, *args, **kwargs): GenericUtils&#xa;+ load_class(module_name, class_name, package_name): object&#xa;+ is_truthy(value): bool" style="text;strokeColor=none;fillColor=none;align=left;verticalAlign=top;spacingLeft=4;spacingRight=4;overflow=hidden;rotatable=0;points=[[0,0.5],[1,0.5]];portConstraint=eastwest;" parent="generic-utils-class" vertex="1">
          <mxGeometry y="58" width="320" height="52" as="geometry" />
        </mxCell>
        <mxCell id="json-utils-class" value="JsonUtils" style="swimlane;fontStyle=1;align=center;verticalAlign=top;childLayout=stackLayout;horizontal=1;startSize=26;horizontalStack=0;resizeParent=1;resizeParentMax=0;resizeLast=0;collapsible=1;marginBottom=0;" parent="WIyWlLk6GJQsqaUBKTNV-1" vertex="1">
          <mxGeometry x="30" y="1169" width="320" height="190" as="geometry" />
        </mxCell>
        <mxCell id="json-utils-attrs" value="- _instance: JsonUtils&#xa;- _logging_utils: LoggingUtils" style="text;strokeColor=none;fillColor=none;align=left;verticalAlign=top;spacingLeft=4;spacingRight=4;overflow=hidden;rotatable=0;points=[[0,0.5],[1,0.5]];portConstraint=eastwest;" parent="json-utils-class" vertex="1">
          <mxGeometry y="26" width="320" height="44" as="geometry" />
        </mxCell>
        <mxCell id="json-utils-line" value="" style="line;strokeWidth=1;fillColor=none;align=left;verticalAlign=middle;spacingTop=-1;spacingLeft=3;spacingRight=3;rotatable=0;labelPosition=right;points=[];portConstraint=eastwest;strokeColor=inherit;" parent="json-utils-class" vertex="1">
          <mxGeometry y="70" width="320" height="8" as="geometry" />
        </mxCell>
        <mxCell id="json-utils-methods" value="+ __new__(cls, *args, **kwargs): JsonUtils&#xa;+ __init__(): None&#xa;+ json_loads(json_string): Any&#xa;+ json_dumps_with_datetime_serialization(obj, json_options=None): str&#xa;+ handle_datetime_serialization(obj): str&#xa;+ extract_code_blocks(text, block_type): list | str&#xa;+ extract_json(text): list | str" style="text;strokeColor=none;fillColor=none;align=left;verticalAlign=top;spacingLeft=4;spacingRight=4;overflow=hidden;rotatable=0;points=[[0,0.5],[1,0.5]];portConstraint=eastwest;" parent="json-utils-class" vertex="1">
          <mxGeometry y="78" width="320" height="112" as="geometry" />
        </mxCell>
        <mxCell id="logger-class" value="Logger" style="swimlane;fontStyle=1;align=center;verticalAlign=top;childLayout=stackLayout;horizontal=1;startSize=26;horizontalStack=0;resizeParent=1;resizeParentMax=0;resizeLast=0;collapsible=1;marginBottom=0;" parent="WIyWlLk6GJQsqaUBKTNV-1" vertex="1">
          <mxGeometry x="270" y="190" width="120" height="60" as="geometry" />
        </mxCell>
        <mxCell id="logger-class-line" value="" style="line;strokeWidth=1;fillColor=none;align=left;verticalAlign=middle;spacingTop=-1;spacingLeft=3;spacingRight=3;rotatable=0;labelPosition=right;points=[];portConstraint=eastwest;strokeColor=inherit;" parent="logger-class" vertex="1">
          <mxGeometry y="26" width="120" height="8" as="geometry" />
        </mxCell>
        <mxCell id="logger-class-methods" value="+ ..." style="text;strokeColor=none;fillColor=none;align=left;verticalAlign=top;spacingLeft=4;spacingRight=4;overflow=hidden;rotatable=0;points=[[0,0.5],[1,0.5]];portConstraint=eastwest;" parent="logger-class" vertex="1">
          <mxGeometry y="34" width="120" height="26" as="geometry" />
        </mxCell>
        <mxCell id="exception-class" value="Exception" style="swimlane;fontStyle=1;align=center;verticalAlign=top;childLayout=stackLayout;horizontal=1;startSize=26;horizontalStack=0;resizeParent=1;resizeParentMax=0;resizeLast=0;collapsible=1;marginBottom=0;" parent="WIyWlLk6GJQsqaUBKTNV-1" vertex="1">
          <mxGeometry x="730" y="430" width="120" height="34" as="geometry">
            <mxRectangle x="1040" y="740" width="90" height="30" as="alternateBounds" />
          </mxGeometry>
        </mxCell>
        <mxCell id="exception-class-line" value="" style="line;strokeWidth=1;fillColor=none;align=left;verticalAlign=middle;spacingTop=-1;spacingLeft=3;spacingRight=3;rotatable=0;labelPosition=right;points=[];portConstraint=eastwest;strokeColor=inherit;" parent="exception-class" vertex="1">
          <mxGeometry y="26" width="120" height="8" as="geometry" />
        </mxCell>
        <mxCell id="path-class" value="Path" style="swimlane;fontStyle=1;align=center;verticalAlign=top;childLayout=stackLayout;horizontal=1;startSize=26;horizontalStack=0;resizeParent=1;resizeParentMax=0;resizeLast=0;collapsible=1;marginBottom=0;" parent="WIyWlLk6GJQsqaUBKTNV-1" vertex="1">
          <mxGeometry x="160" y="800" width="120" height="60" as="geometry" />
        </mxCell>
        <mxCell id="path-class-line" value="" style="line;strokeWidth=1;fillColor=none;align=left;verticalAlign=middle;spacingTop=-1;spacingLeft=3;spacingRight=3;rotatable=0;labelPosition=right;points=[];portConstraint=eastwest;strokeColor=inherit;" parent="path-class" vertex="1">
          <mxGeometry y="26" width="120" height="8" as="geometry" />
        </mxCell>
        <mxCell id="path-class-methods" value="+ ..." style="text;strokeColor=none;fillColor=none;align=left;verticalAlign=top;spacingLeft=4;spacingRight=4;overflow=hidden;rotatable=0;points=[[0,0.5],[1,0.5]];portConstraint=eastwest;" parent="path-class" vertex="1">
          <mxGeometry y="34" width="120" height="26" as="geometry" />
        </mxCell>
        <mxCell id="config-param-rel" value="uses" style="endArrow=open;endSize=12;dashed=1;html=1;rounded=0;entryX=0.463;entryY=1.063;entryDx=0;entryDy=0;entryPerimeter=0;" parent="WIyWlLk6GJQsqaUBKTNV-1" source="config-class" target="param-prop-methods" edge="1">
          <mxGeometry width="160" relative="1" as="geometry">
            <mxPoint x="-10" y="1390" as="sourcePoint" />
            <mxPoint x="150" y="1390" as="targetPoint" />
            <Array as="points" />
          </mxGeometry>
        </mxCell>
        <mxCell id="logger-success-logger-rel" value="" style="endArrow=block;endSize=16;endFill=0;html=1;rounded=0;exitX=0.857;exitY=-0.037;exitDx=0;exitDy=0;entryX=0.267;entryY=0.923;entryDx=0;entryDy=0;entryPerimeter=0;exitPerimeter=0;" parent="WIyWlLk6GJQsqaUBKTNV-1" source="logger-success-class" target="logger-class-methods" edge="1">
          <mxGeometry width="160" relative="1" as="geometry">
            <mxPoint x="330" y="400" as="sourcePoint" />
            <mxPoint x="490" y="400" as="targetPoint" />
          </mxGeometry>
        </mxCell>
        <mxCell id="rdiSGfh49wdftC4usLac-2" value="extends" style="edgeLabel;html=1;align=center;verticalAlign=middle;resizable=0;points=[];" parent="logger-success-logger-rel" vertex="1" connectable="0">
          <mxGeometry x="-0.5506" y="-1" relative="1" as="geometry">
            <mxPoint y="-6" as="offset" />
          </mxGeometry>
        </mxCell>
        <mxCell id="logger-trace-logger-rel" value="" style="endArrow=block;endSize=16;endFill=0;html=1;rounded=0;exitX=0.139;exitY=-0.012;exitDx=0;exitDy=0;exitPerimeter=0;entryX=0.792;entryY=0.962;entryDx=0;entryDy=0;entryPerimeter=0;" parent="WIyWlLk6GJQsqaUBKTNV-1" source="logger-trace-class" target="logger-class-methods" edge="1">
          <mxGeometry width="160" relative="1" as="geometry">
            <mxPoint x="660" y="280" as="sourcePoint" />
            <mxPoint x="580" y="260" as="targetPoint" />
          </mxGeometry>
        </mxCell>
        <mxCell id="rdiSGfh49wdftC4usLac-3" value="extends" style="edgeLabel;html=1;align=center;verticalAlign=middle;resizable=0;points=[];" parent="logger-trace-logger-rel" vertex="1" connectable="0">
          <mxGeometry x="-0.2092" y="-1" relative="1" as="geometry">
            <mxPoint as="offset" />
          </mxGeometry>
        </mxCell>
        <mxCell id="missing-env-exception-rel" value="" style="endArrow=block;endSize=16;endFill=0;html=1;rounded=0;exitX=0.543;exitY=-0.03;exitDx=0;exitDy=0;entryX=0.492;entryY=0.5;entryDx=0;entryDy=0;exitPerimeter=0;entryPerimeter=0;" parent="WIyWlLk6GJQsqaUBKTNV-1" source="missing-env-class" target="exception-class-line" edge="1">
          <mxGeometry width="160" relative="1" as="geometry">
            <mxPoint x="390" y="330" as="sourcePoint" />
            <mxPoint x="550" y="330" as="targetPoint" />
          </mxGeometry>
        </mxCell>
        <mxCell id="rdiSGfh49wdftC4usLac-1" value="extends" style="edgeLabel;html=1;align=center;verticalAlign=middle;resizable=0;points=[];" parent="missing-env-exception-rel" vertex="1" connectable="0">
          <mxGeometry x="-0.2552" y="-1" relative="1" as="geometry">
            <mxPoint as="offset" />
          </mxGeometry>
        </mxCell>
        <mxCell id="path-utils-path-rel" value="" style="endArrow=open;endSize=12;dashed=1;html=1;rounded=0;" parent="WIyWlLk6GJQsqaUBKTNV-1" target="path-class-methods" edge="1">
          <mxGeometry width="160" relative="1" as="geometry">
            <mxPoint x="220" y="930" as="sourcePoint" />
            <mxPoint x="490" y="400" as="targetPoint" />
          </mxGeometry>
        </mxCell>
        <mxCell id="0FEMXD7IfhNHPRZaSLPf-0" value="uses" style="edgeLabel;html=1;align=center;verticalAlign=middle;resizable=0;points=[];" vertex="1" connectable="0" parent="path-utils-path-rel">
          <mxGeometry x="-0.3275" y="-1" relative="1" as="geometry">
            <mxPoint x="-1" y="3" as="offset" />
          </mxGeometry>
        </mxCell>
        <mxCell id="logging-utils-logger-success-rel" value="" style="endArrow=open;endSize=12;dashed=1;html=1;rounded=0;exitX=0.468;exitY=-0.008;exitDx=0;exitDy=0;entryX=0.86;entryY=1.125;entryDx=0;entryDy=0;entryPerimeter=0;exitPerimeter=0;" parent="WIyWlLk6GJQsqaUBKTNV-1" source="logging-utils-class" target="logger-success-methods" edge="1">
          <mxGeometry width="160" relative="1" as="geometry">
            <mxPoint x="330" y="400" as="sourcePoint" />
            <mxPoint x="490" y="400" as="targetPoint" />
          </mxGeometry>
        </mxCell>
        <mxCell id="0FEMXD7IfhNHPRZaSLPf-2" value="uses" style="edgeLabel;html=1;align=center;verticalAlign=middle;resizable=0;points=[];" vertex="1" connectable="0" parent="logging-utils-logger-success-rel">
          <mxGeometry x="-0.2037" y="-2" relative="1" as="geometry">
            <mxPoint as="offset" />
          </mxGeometry>
        </mxCell>
        <mxCell id="logging-utils-logger-trace-rel" value="" style="endArrow=open;endSize=12;dashed=1;html=1;rounded=0;exitX=0.633;exitY=0.004;exitDx=0;exitDy=0;entryX=0.25;entryY=1;entryDx=0;entryDy=0;exitPerimeter=0;" parent="WIyWlLk6GJQsqaUBKTNV-1" source="logging-utils-class" target="logger-trace-class" edge="1">
          <mxGeometry width="160" relative="1" as="geometry">
            <mxPoint x="330" y="400" as="sourcePoint" />
            <mxPoint x="490" y="400" as="targetPoint" />
          </mxGeometry>
        </mxCell>
        <mxCell id="0FEMXD7IfhNHPRZaSLPf-3" value="uses" style="edgeLabel;html=1;align=center;verticalAlign=middle;resizable=0;points=[];" vertex="1" connectable="0" parent="logging-utils-logger-trace-rel">
          <mxGeometry x="-0.0935" y="2" relative="1" as="geometry">
            <mxPoint as="offset" />
          </mxGeometry>
        </mxCell>
        <mxCell id="rdiSGfh49wdftC4usLac-4" value="importlib" style="shape=folder;fontStyle=1;spacingTop=10;tabWidth=40;tabHeight=14;tabPosition=left;html=1;whiteSpace=wrap;" parent="WIyWlLk6GJQsqaUBKTNV-1" vertex="1">
          <mxGeometry x="525" y="820" width="70" height="50" as="geometry" />
        </mxCell>
        <mxCell id="0FEMXD7IfhNHPRZaSLPf-4" style="rounded=0;orthogonalLoop=1;jettySize=auto;html=1;entryX=-0.004;entryY=1.083;entryDx=0;entryDy=0;entryPerimeter=0;endSize=12;endArrow=openThin;endFill=0;dashed=1;" edge="1" parent="WIyWlLk6GJQsqaUBKTNV-1" source="logging-utils-class" target="missing-env-attrs">
          <mxGeometry relative="1" as="geometry" />
        </mxCell>
        <mxCell id="0FEMXD7IfhNHPRZaSLPf-5" value="uses" style="edgeLabel;html=1;align=center;verticalAlign=middle;resizable=0;points=[];" vertex="1" connectable="0" parent="0FEMXD7IfhNHPRZaSLPf-4">
          <mxGeometry x="-0.1251" relative="1" as="geometry">
            <mxPoint as="offset" />
          </mxGeometry>
        </mxCell>
      </root>
    </mxGraphModel>
  </diagram>
</mxfile>
